<svg xmlns="http://www.w3.org/2000/svg" viewBox="0 0 640 480" preserveAspectRatio="none">
  <!-- Watercolour wash mask: soft, pooled blots (more opaque where they overlap). Generated. -->
  <defs>
    <filter id="wet" x="-10%" y="-10%" width="120%" height="120%">
      <feTurbulence type="fractalNoise" baseFrequency="0.018" numOctaves="4" seed="8" result="n"/>
      <feDisplacementMap in="SourceGraphic" in2="n" scale="38" xChannelSelector="R" yChannelSelector="G" result="d"/>
      <feGaussianBlur in="d" stdDeviation="2.2"/>
    </filter>
  </defs>
  <g filter="url(#wet)">
    <path d="M622.0 240.0 C619.8 249.6 617.6 258.4 617.4 268.1 C617.3 277.7 620.5 287.6 621.1 297.8 C621.7 308.0 623.8 319.4 620.8 329.3 C617.9 339.2 611.9 349.3 603.4 357.3 C594.9 365.3 581.7 371.6 569.8 377.4 C557.9 383.1 544.0 387.2 531.9 391.9 C519.8 396.6 508.7 401.2 497.2 405.5 C485.8 409.9 475.1 414.9 463.3 417.9 C451.5 420.9 438.7 422.9 426.2 423.7 C413.7 424.5 400.4 422.7 388.3 422.7 C376.2 422.7 365.1 421.5 353.7 423.5 C342.3 425.4 332.1 429.7 320.0 434.6 C307.9 439.4 294.9 447.7 280.9 452.6 C267.0 457.6 250.8 463.1 236.1 464.3 C221.4 465.6 206.1 463.6 192.8 460.0 C179.6 456.5 167.9 449.2 156.5 442.9 C145.2 436.6 135.3 429.1 124.9 422.2 C114.5 415.4 103.6 409.1 94.2 401.8 C84.8 394.5 74.9 387.1 68.3 378.4 C61.7 369.7 57.4 359.6 54.7 349.8 C52.0 340.0 53.1 329.1 52.0 319.5 C51.0 309.9 51.1 300.9 48.4 292.2 C45.7 283.4 40.2 275.5 35.8 266.8 C31.4 258.1 24.2 249.1 22.0 240.0 C19.8 230.9 19.3 220.8 22.6 211.9 C25.8 203.0 34.2 194.4 41.5 186.5 C48.9 178.7 59.5 172.1 66.5 164.8 C73.6 157.4 79.3 150.5 83.8 142.3 C88.4 134.1 89.8 124.7 93.8 115.6 C97.8 106.5 101.3 96.3 107.6 87.8 C114.0 79.3 122.7 71.5 132.0 64.4 C141.3 57.3 152.5 51.8 163.3 45.5 C174.1 39.2 185.0 32.8 196.6 26.5 C208.2 20.1 219.9 12.2 233.0 7.3 C246.1 2.5 260.9 -2.4 275.4 -2.9 C289.9 -3.3 306.0 -0.3 320.0 4.6 C334.0 9.4 347.3 18.9 359.3 26.3 C371.2 33.7 380.9 42.9 391.4 49.0 C401.9 55.1 411.6 59.2 422.4 62.8 C433.3 66.4 445.3 67.5 456.5 70.5 C467.8 73.6 479.8 76.5 490.1 81.1 C500.5 85.6 509.4 91.9 518.4 97.8 C527.5 103.7 535.0 110.5 544.3 116.6 C553.6 122.8 564.0 128.4 574.3 134.8 C584.7 141.2 597.4 147.3 606.4 155.0 C615.3 162.7 623.9 171.6 628.0 180.9 C632.0 190.1 631.6 200.8 630.7 210.7 C629.7 220.5 624.2 230.4 622.0 240.0 Z" fill-opacity=".55"/>
    <path d="M490.2 300.0 C488.2 306.9 487.4 313.6 484.8 320.2 C482.2 326.7 480.0 333.5 474.5 339.2 C469.0 345.0 460.8 350.3 451.9 354.5 C443.0 358.8 430.5 361.4 421.3 364.5 C412.1 367.6 402.6 369.4 396.7 373.4 C390.7 377.4 388.3 382.2 385.6 388.4 C382.9 394.7 383.4 403.4 380.5 410.9 C377.6 418.4 374.3 427.3 368.3 433.6 C362.3 439.9 353.5 444.9 344.5 448.7 C335.5 452.6 324.6 454.2 314.3 456.5 C304.0 458.7 293.5 460.4 282.7 462.2 C272.0 464.0 261.0 466.6 250.0 467.2 C239.0 467.8 227.1 468.0 216.5 465.8 C206.0 463.5 195.6 458.8 186.8 453.9 C177.9 449.0 170.9 441.7 163.3 436.5 C155.8 431.2 149.6 426.2 141.5 422.6 C133.4 419.0 124.1 417.4 114.9 414.9 C105.6 412.3 94.1 410.8 85.9 407.0 C77.6 403.3 69.8 398.3 65.3 392.4 C60.8 386.6 59.9 378.8 58.8 372.0 C57.7 365.2 59.7 357.9 58.7 351.7 C57.7 345.4 56.0 340.0 53.0 334.4 C49.9 328.8 44.1 323.7 40.3 318.0 C36.5 312.3 32.1 306.2 30.2 300.0 C28.2 293.8 28.7 287.4 28.7 281.0 C28.7 274.6 30.5 268.5 30.2 261.6 C29.9 254.7 28.1 247.6 26.9 239.7 C25.7 231.9 22.1 222.7 22.9 214.5 C23.7 206.3 25.5 197.1 31.7 190.8 C38.0 184.4 48.9 179.3 60.3 176.3 C71.8 173.3 87.5 173.3 100.5 172.9 C113.4 172.5 126.9 174.0 138.3 173.8 C149.6 173.6 158.9 172.8 168.4 171.6 C177.9 170.4 186.2 167.8 195.2 166.7 C204.3 165.6 213.6 164.7 222.7 164.8 C231.8 164.9 241.0 166.6 250.0 167.2 C259.0 167.8 267.3 168.8 276.6 168.3 C285.9 167.8 295.4 165.6 305.8 164.1 C316.3 162.6 328.4 159.5 339.4 159.3 C350.3 159.1 362.2 159.8 371.5 162.8 C380.8 165.7 388.3 171.5 394.9 176.9 C401.5 182.2 405.2 189.4 411.1 194.9 C417.0 200.4 422.5 205.3 430.2 209.8 C437.9 214.3 448.3 217.5 457.2 222.0 C466.1 226.5 477.0 231.1 483.7 236.9 C490.4 242.7 495.2 249.8 497.3 256.8 C499.4 263.8 497.5 271.6 496.3 278.8 C495.2 286.1 492.1 293.1 490.2 300.0 Z" fill-opacity=".35"/>
    <path d="M600.1 170.0 C595.1 175.1 587.6 179.4 584.5 184.1 C581.5 188.8 580.6 192.9 581.6 198.1 C582.6 203.4 587.7 209.5 590.3 215.9 C592.9 222.2 596.8 229.8 597.0 236.4 C597.2 243.0 595.0 249.7 591.5 255.5 C588.0 261.4 581.7 266.3 576.1 271.4 C570.4 276.6 564.1 281.5 557.4 286.4 C550.8 291.3 544.4 297.1 536.3 301.0 C528.3 304.8 519.0 308.7 509.0 309.7 C499.0 310.6 487.0 309.2 476.3 306.6 C465.7 304.1 454.6 298.3 445.2 294.5 C435.8 290.7 428.0 285.9 420.0 283.8 C412.0 281.7 405.3 281.7 397.3 281.9 C389.4 282.2 380.9 284.9 372.4 285.4 C364.0 285.9 354.7 286.3 346.8 284.9 C338.8 283.6 331.6 280.2 324.9 277.0 C318.2 273.9 313.0 269.5 306.5 266.2 C300.0 262.8 293.3 260.1 285.8 257.2 C278.4 254.3 269.1 252.3 261.8 248.9 C254.4 245.5 246.7 241.6 241.7 236.9 C236.7 232.2 234.3 226.2 232.0 220.6 C229.7 215.0 230.1 209.0 227.7 203.5 C225.3 197.9 222.3 192.9 217.6 187.3 C213.0 181.7 205.0 176.2 200.1 170.0 C195.1 163.8 188.8 156.7 188.0 150.1 C187.2 143.6 189.8 136.5 195.2 130.9 C200.7 125.2 211.5 120.4 220.7 116.4 C230.0 112.3 241.7 109.6 250.6 106.4 C259.5 103.2 267.0 100.4 274.2 97.3 C281.3 94.1 286.6 90.4 293.2 87.6 C299.8 84.7 306.7 82.1 313.9 80.1 C321.1 78.2 329.3 77.6 336.3 75.8 C343.3 74.0 349.9 72.8 355.9 69.5 C362.0 66.1 366.6 61.0 372.8 55.5 C379.0 50.1 385.1 42.0 393.0 36.8 C400.9 31.5 410.6 25.9 420.0 23.8 C429.4 21.7 440.2 22.4 449.5 24.2 C458.9 25.9 467.6 30.8 476.0 34.2 C484.4 37.6 491.7 41.8 499.8 44.7 C508.0 47.7 516.6 49.3 524.9 51.9 C533.3 54.4 542.7 56.3 550.0 59.9 C557.3 63.5 563.8 68.2 568.7 73.4 C573.5 78.5 575.9 85.0 579.1 90.6 C582.4 96.2 584.4 101.8 588.1 106.9 C591.9 112.0 597.2 116.2 601.6 121.1 C605.9 126.0 612.0 130.8 614.1 136.2 C616.2 141.6 616.6 147.7 614.2 153.4 C611.9 159.0 605.0 164.9 600.1 170.0 Z" fill-opacity=".3"/>
  </g>
</svg>
